<svg width="40" height="40" version="1.1" viewBox="0 0 32.244 32.154" xmlns="http://www.w3.org/2000/svg">
 <g transform="translate(-61.8 -87.595)">
  <path d="m80.882 90.921v3.4971a12.328 11.119 0 0 1 9.3686 10.791 12.328 11.119 0 0 1-12.328 11.119 12.328 11.119 0 0 1-12.329-11.119 12.328 11.119 0 0 1 9.0094-10.705v-3.5235a16.122 14.54 0 0 0-12.803 14.228 16.122 14.54 0 0 0 16.122 14.54 16.122 14.54 0 0 0 16.122-14.54 16.122 14.54 0 0 0-13.162-14.288z" fill="#241c1c" />
  <rect x="75.786" y="87.595" width="4.0929" height="17.376" ry="1.987" fill="#280b0b" />
 </g>
</svg>
